<svg xmlns="http://www.w3.org/2000/svg" xmlns:xlink="http://www.w3.org/1999/xlink" width="96" zoomAndPan="magnify" viewBox="0 0 72 72" height="96" preserveAspectRatio="xMidYMid meet" version="1.0"><defs><clipPath id="cbbf7e37be"><path d="M 31 7.929688 L 33 7.929688 L 33 12 L 31 12 Z M 31 7.929688 " clip-rule="nonzero"/></clipPath><clipPath id="8910cd2acd"><path d="M 12.113281 10.449219 L 60.113281 10.449219 L 60.113281 64.132812 L 12.113281 64.132812 Z M 12.113281 10.449219 " clip-rule="nonzero"/></clipPath></defs><rect x="-7.2" width="86.4" fill="#ffffff" y="-7.2" height="86.4" fill-opacity="1"/><rect x="-7.2" width="86.4" fill="#ffffff" y="-7.2" height="86.4" fill-opacity="1"/><path fill="#96c930" d="M 39.789062 30.335938 C 39.941406 30.164062 40.957031 28.769531 40.46875 27.28125 C 40.484375 28.5 40.203125 29.167969 39.554688 30.148438 C 38.902344 29.328125 38.800781 28.441406 39.230469 27.507812 C 39.546875 26.816406 40.109375 26.273438 40.753906 25.839844 C 41.390625 26.5625 41.6875 27.792969 41.460938 28.738281 C 41.257812 29.582031 40.664062 30.300781 39.789062 30.335938 " fill-opacity="1" fill-rule="evenodd"/><path fill="#db7705" d="M 36.066406 34.785156 C 35.824219 34.832031 33.960938 34.996094 32.851562 33.714844 C 33.976562 34.40625 34.75 34.519531 36.019531 34.464844 C 35.621094 33.410156 34.855469 32.820312 33.75 32.695312 C 32.933594 32.605469 32.117188 32.824219 31.355469 33.175781 C 31.671875 34.167969 32.648438 35.125 33.652344 35.4375 C 34.550781 35.722656 35.546875 35.578125 36.066406 34.785156 " fill-opacity="1" fill-rule="evenodd"/><path fill="#db7705" d="M 32.832031 30.242188 C 32.679688 30.414062 31.414062 31.589844 29.875 31.285156 C 31.089844 31.152344 31.71875 30.796875 32.613281 30.035156 C 31.71875 29.492188 30.824219 29.496094 29.949219 30.035156 C 29.304688 30.429688 28.828125 31.050781 28.480469 31.742188 C 29.273438 32.28125 30.53125 32.425781 31.441406 32.089844 C 32.257812 31.785156 32.902344 31.113281 32.832031 30.242188 " fill-opacity="1" fill-rule="evenodd"/><path fill="#db7705" d="M 28.820312 35.117188 C 28.824219 34.90625 28.710938 33.332031 27.488281 32.578125 C 28.21875 33.421875 28.417969 34.054688 28.542969 35.121094 C 27.605469 34.929688 27.003906 34.371094 26.753906 33.464844 C 26.570312 32.796875 26.640625 32.085938 26.835938 31.402344 C 27.710938 31.535156 28.644531 32.21875 29.042969 33.015625 C 29.402344 33.726562 29.414062 34.578125 28.820312 35.117188 " fill-opacity="1" fill-rule="evenodd"/><path fill="#db7705" d="M 24.8125 35.140625 C 24.863281 34.933594 25.101562 33.355469 24.0625 32.34375 C 24.59375 33.335938 24.652344 34.003906 24.539062 35.082031 C 23.65625 34.6875 23.191406 34.007812 23.144531 33.058594 C 23.109375 32.359375 23.335938 31.671875 23.675781 31.042969 C 24.507812 31.363281 25.277344 32.246094 25.496094 33.117188 C 25.695312 33.894531 25.515625 34.734375 24.8125 35.140625 " fill-opacity="1" fill-rule="evenodd"/><path fill="#db7705" d="M 21.261719 32.976562 C 21.164062 32.792969 20.585938 31.367188 21.335938 30.179688 C 21.058594 31.234375 21.152344 31.871094 21.503906 32.863281 C 22.246094 32.292969 22.53125 31.546875 22.359375 30.644531 C 22.234375 29.980469 21.867188 29.386719 21.402344 28.871094 C 20.691406 29.359375 20.167969 30.359375 20.160156 31.230469 C 20.152344 32.003906 20.507812 32.753906 21.261719 32.976562 " fill-opacity="1" fill-rule="evenodd"/><path fill="#b93109" d="M 19.503906 33.71875 C 19.308594 33.652344 17.898438 33.023438 17.613281 31.652344 C 18.144531 32.605469 18.660156 32.996094 19.597656 33.46875 C 19.738281 32.546875 19.421875 31.8125 18.675781 31.28125 C 18.121094 30.886719 17.441406 30.714844 16.75 30.664062 C 16.582031 31.503906 16.898438 32.589844 17.496094 33.21875 C 18.027344 33.785156 18.808594 34.082031 19.503906 33.71875 " fill-opacity="1" fill-rule="evenodd"/><path fill="#b93109" d="M 25.117188 36.855469 C 25.023438 37.039062 24.191406 38.335938 22.789062 38.414062 C 23.808594 38.03125 24.277344 37.582031 24.882812 36.726562 C 23.988281 36.453125 23.210938 36.652344 22.574219 37.3125 C 22.101562 37.800781 21.832031 38.445312 21.679688 39.117188 C 22.488281 39.414062 23.613281 39.257812 24.328125 38.761719 C 24.964844 38.320312 25.371094 37.597656 25.117188 36.855469 " fill-opacity="1" fill-rule="evenodd"/><path fill="#b93109" d="M 21.65625 35.457031 C 21.507812 35.601562 20.300781 36.566406 18.949219 36.195312 C 20.039062 36.15625 20.625 35.878906 21.476562 35.257812 C 20.714844 34.714844 19.917969 34.660156 19.101562 35.082031 C 18.496094 35.394531 18.03125 35.917969 17.671875 36.507812 C 18.347656 37.042969 19.457031 37.253906 20.292969 37.011719 C 21.042969 36.796875 21.660156 36.242188 21.65625 35.457031 " fill-opacity="1" fill-rule="evenodd"/><path fill="#b93109" d="M 31.042969 39.886719 C 31.039062 40.09375 30.871094 41.621094 29.652344 42.3125 C 30.394531 41.515625 30.613281 40.910156 30.773438 39.871094 C 29.851562 40.023438 29.246094 40.546875 28.96875 41.421875 C 28.761719 42.066406 28.804688 42.761719 28.972656 43.433594 C 29.828125 43.339844 30.761719 42.703125 31.183594 41.945312 C 31.558594 41.265625 31.601562 40.4375 31.042969 39.886719 " fill-opacity="1" fill-rule="evenodd"/><path fill="#b93109" d="M 27.40625 40.515625 C 27.425781 40.722656 27.421875 42.261719 26.285156 43.078125 C 26.9375 42.207031 27.089844 41.578125 27.136719 40.53125 C 26.238281 40.78125 25.691406 41.367188 25.511719 42.265625 C 25.375 42.929688 25.492188 43.617188 25.730469 44.265625 C 26.570312 44.082031 27.433594 43.347656 27.769531 42.546875 C 28.066406 41.832031 28.019531 41.003906 27.40625 40.515625 " fill-opacity="1" fill-rule="evenodd"/><path fill="#b93109" d="M 23.894531 40.75 C 23.914062 40.957031 23.914062 42.496094 22.773438 43.3125 C 23.425781 42.441406 23.578125 41.8125 23.625 40.765625 C 22.726562 41.015625 22.179688 41.601562 22 42.5 C 21.863281 43.164062 21.980469 43.851562 22.21875 44.5 C 23.058594 44.3125 23.921875 43.582031 24.257812 42.78125 C 24.558594 42.066406 24.511719 41.238281 23.894531 40.75 " fill-opacity="1" fill-rule="evenodd"/><path fill="#b93109" d="M 20.40625 39.996094 C 20.210938 40.058594 18.699219 40.371094 17.664062 39.429688 C 18.652344 39.886719 19.300781 39.90625 20.339844 39.738281 C 19.90625 38.910156 19.222656 38.5 18.304688 38.503906 C 17.625 38.511719 16.972656 38.765625 16.382812 39.128906 C 16.738281 39.914062 17.632812 40.605469 18.488281 40.769531 C 19.253906 40.914062 20.054688 40.695312 20.40625 39.996094 " fill-opacity="1" fill-rule="evenodd"/><path fill="#db7705" d="M 28.359375 28.519531 C 28.207031 28.65625 26.945312 29.582031 25.59375 29.152344 C 26.699219 29.15625 27.300781 28.902344 28.1875 28.308594 C 27.441406 27.726562 26.632812 27.636719 25.789062 28.03125 C 25.167969 28.324219 24.675781 28.832031 24.289062 29.414062 C 24.945312 29.984375 26.0625 30.246094 26.921875 30.035156 C 27.683594 29.847656 28.332031 29.3125 28.359375 28.519531 " fill-opacity="1" fill-rule="evenodd"/><path fill="#96c930" d="M 37.375 25.917969 C 37.574219 25.796875 38.984375 24.773438 38.976562 23.191406 C 38.613281 24.367188 38.136719 24.921875 37.210938 25.660156 C 36.839844 24.675781 37.011719 23.789062 37.714844 23.027344 C 38.234375 22.460938 38.945312 22.113281 39.695312 21.894531 C 40.085938 22.785156 39.988281 24.058594 39.476562 24.894531 C 39.019531 25.644531 38.230469 26.152344 37.375 25.917969 " fill-opacity="1" fill-rule="evenodd"/><path fill="#96c930" d="M 35.496094 16.582031 C 35.707031 16.578125 37.261719 16.421875 37.972656 15.195312 C 37.160156 15.941406 36.539062 16.15625 35.484375 16.308594 C 35.648438 15.378906 36.179688 14.773438 37.070312 14.5 C 37.730469 14.296875 38.4375 14.34375 39.117188 14.515625 C 39.011719 15.378906 38.359375 16.320312 37.585938 16.738281 C 36.894531 17.113281 36.050781 17.148438 35.496094 16.582031 " fill-opacity="1" fill-rule="evenodd"/><path fill="#bda213" d="M 33.167969 17.472656 C 33 17.378906 31.800781 16.554688 31.773438 15.234375 C 32.101562 16.207031 32.511719 16.660156 33.300781 17.257812 C 33.589844 16.425781 33.425781 15.691406 32.824219 15.070312 C 32.378906 14.609375 31.78125 14.332031 31.148438 14.167969 C 30.84375 14.917969 30.949219 15.976562 31.394531 16.667969 C 31.789062 17.28125 32.460938 17.6875 33.167969 17.472656 " fill-opacity="1" fill-rule="evenodd"/><path fill="#bda213" d="M 29.546875 14.675781 C 29.660156 14.515625 30.363281 13.246094 29.800781 12.050781 C 29.941406 13.066406 29.777344 13.652344 29.335938 14.539062 C 28.707031 13.921875 28.527344 13.191406 28.789062 12.367188 C 28.984375 11.757812 29.394531 11.246094 29.890625 10.816406 C 30.496094 11.355469 30.871094 12.351562 30.78125 13.164062 C 30.699219 13.890625 30.277344 14.554688 29.546875 14.675781 " fill-opacity="1" fill-rule="evenodd"/><path fill="#e5c113" d="M 34.140625 25.757812 C 33.953125 25.796875 32.503906 25.960938 31.617188 24.984375 C 32.503906 25.5 33.109375 25.574219 34.097656 25.507812 C 33.769531 24.695312 33.160156 24.246094 32.296875 24.171875 C 31.65625 24.117188 31.023438 24.300781 30.441406 24.59375 C 30.703125 25.359375 31.484375 26.085938 32.273438 26.3125 C 32.976562 26.515625 33.75 26.382812 34.140625 25.757812 " fill-opacity="1" fill-rule="evenodd"/><path fill="#e5c113" d="M 27.914062 26.261719 C 28.03125 26.105469 28.777344 24.859375 28.253906 23.648438 C 28.359375 24.667969 28.175781 25.25 27.703125 26.121094 C 27.097656 25.484375 26.941406 24.746094 27.230469 23.929688 C 27.445312 23.328125 27.875 22.832031 28.382812 22.421875 C 28.972656 22.976562 29.3125 23.984375 29.195312 24.792969 C 29.089844 25.519531 28.648438 26.167969 27.914062 26.261719 " fill-opacity="1" fill-rule="evenodd"/><path fill="#e5c113" d="M 24.980469 24.605469 C 25.109375 24.460938 25.96875 23.289062 25.558594 22.035156 C 25.566406 23.0625 25.332031 23.621094 24.785156 24.445312 C 24.238281 23.757812 24.152344 23.007812 24.515625 22.226562 C 24.78125 21.644531 25.257812 21.1875 25.796875 20.824219 C 26.335938 21.433594 26.582031 22.46875 26.390625 23.261719 C 26.21875 23.976562 25.71875 24.578125 24.980469 24.605469 " fill-opacity="1" fill-rule="evenodd"/><path fill="#e5c113" d="M 22.992188 21.789062 C 23.132812 21.652344 24.0625 20.535156 23.730469 19.257812 C 23.675781 20.28125 23.40625 20.828125 22.808594 21.617188 C 22.308594 20.894531 22.265625 20.144531 22.675781 19.382812 C 22.980469 18.820312 23.484375 18.394531 24.046875 18.066406 C 24.542969 18.707031 24.726562 19.753906 24.484375 20.535156 C 24.269531 21.234375 23.734375 21.804688 22.992188 21.789062 " fill-opacity="1" fill-rule="evenodd"/><path fill="#db7705" d="M 24.835938 26.464844 C 24.699219 26.601562 23.578125 27.527344 22.296875 27.199219 C 23.324219 27.144531 23.871094 26.875 24.664062 26.277344 C 23.9375 25.777344 23.183594 25.738281 22.421875 26.148438 C 21.859375 26.449219 21.429688 26.949219 21.097656 27.511719 C 21.742188 28.007812 22.792969 28.191406 23.578125 27.949219 C 24.28125 27.734375 24.851562 27.199219 24.835938 26.464844 " fill-opacity="1" fill-rule="evenodd"/><path fill="#db7705" d="M 19.59375 30.117188 C 19.449219 29.988281 18.46875 28.917969 18.738281 27.625 C 18.839844 28.644531 19.132812 29.179688 19.769531 29.9375 C 20.238281 29.191406 20.242188 28.441406 19.792969 27.699219 C 19.464844 27.152344 18.941406 26.75 18.363281 26.449219 C 17.898438 27.113281 17.765625 28.167969 18.042969 28.9375 C 18.292969 29.625 18.855469 30.171875 19.59375 30.117188 " fill-opacity="1" fill-rule="evenodd"/><path fill="#db7705" d="M 22.027344 23.800781 C 21.851562 23.878906 20.472656 24.34375 19.394531 23.578125 C 20.371094 23.894531 20.980469 23.839844 21.933594 23.566406 C 21.4375 22.839844 20.746094 22.53125 19.886719 22.640625 C 19.25 22.722656 18.671875 23.039062 18.160156 23.445312 C 18.585938 24.136719 19.5 24.683594 20.320312 24.738281 C 21.050781 24.789062 21.777344 24.492188 22.027344 23.800781 " fill-opacity="1" fill-rule="evenodd"/><path fill="#db7705" d="M 21.210938 20.792969 C 21.015625 20.785156 19.574219 20.601562 18.941406 19.441406 C 19.679688 20.152344 20.25 20.371094 21.230469 20.539062 C 21.101562 19.671875 20.617188 19.09375 19.796875 18.816406 C 19.191406 18.609375 18.53125 18.640625 17.894531 18.78125 C 17.96875 19.589844 18.550781 20.480469 19.261719 20.886719 C 19.898438 21.253906 20.683594 21.308594 21.210938 20.792969 " fill-opacity="1" fill-rule="evenodd"/><path fill="#e5c113" d="M 33.085938 22.625 C 32.90625 22.699219 31.519531 23.132812 30.457031 22.34375 C 31.429688 22.683594 32.039062 22.640625 32.996094 22.386719 C 32.515625 21.652344 31.835938 21.328125 30.972656 21.417969 C 30.335938 21.488281 29.75 21.785156 29.230469 22.183594 C 29.636719 22.882812 30.539062 23.449219 31.355469 23.523438 C 32.085938 23.589844 32.820312 23.3125 33.085938 22.625 " fill-opacity="1" fill-rule="evenodd"/><path fill="#e5c113" d="M 30.570312 19.8125 C 30.414062 19.929688 29.15625 20.65625 27.945312 20.121094 C 28.96875 20.238281 29.550781 20.0625 30.429688 19.605469 C 29.796875 18.992188 29.0625 18.828125 28.242188 19.105469 C 27.636719 19.3125 27.128906 19.734375 26.710938 20.238281 C 27.265625 20.832031 28.269531 21.183594 29.082031 21.074219 C 29.8125 20.976562 30.464844 20.542969 30.570312 19.8125 " fill-opacity="1" fill-rule="evenodd"/><path fill="#e5c113" d="M 28.054688 17.160156 C 27.886719 17.253906 26.546875 17.824219 25.414062 17.148438 C 26.414062 17.386719 27.015625 17.285156 27.941406 16.933594 C 27.390625 16.25 26.679688 16 25.828125 16.175781 C 25.203125 16.308594 24.648438 16.667969 24.175781 17.113281 C 24.652344 17.769531 25.609375 18.242188 26.429688 18.230469 C 27.164062 18.222656 27.863281 17.871094 28.054688 17.160156 " fill-opacity="1" fill-rule="evenodd"/><path fill="#db7705" d="M 21.636719 18.441406 C 21.582031 18.253906 21.296875 16.832031 22.195312 15.863281 C 21.753906 16.789062 21.730469 17.398438 21.882812 18.375 C 22.667969 17.976562 23.0625 17.335938 23.0625 16.472656 C 23.0625 15.832031 22.828125 15.21875 22.488281 14.664062 C 21.746094 14.992188 21.082031 15.828125 20.925781 16.628906 C 20.78125 17.347656 20.980469 18.105469 21.636719 18.441406 " fill-opacity="1" fill-rule="evenodd"/><path fill="#bda213" d="M 34.183594 14.203125 C 34.0625 14.085938 33.265625 13.121094 33.550781 12.023438 C 33.597656 12.90625 33.828125 13.375 34.34375 14.054688 C 34.777344 13.433594 34.8125 12.785156 34.460938 12.128906 C 34.199219 11.648438 33.769531 11.277344 33.28125 10.996094 C 32.855469 11.546875 32.695312 12.449219 32.902344 13.121094 C 33.085938 13.722656 33.546875 14.214844 34.183594 14.203125 " fill-opacity="1" fill-rule="evenodd"/><path fill="#bda213" d="M 35.78125 11.613281 C 35.664062 11.496094 34.867188 10.53125 35.152344 9.433594 C 35.195312 10.316406 35.429688 10.785156 35.941406 11.464844 C 36.375 10.84375 36.414062 10.199219 36.058594 9.542969 C 35.796875 9.058594 35.367188 8.691406 34.882812 8.40625 C 34.453125 8.957031 34.296875 9.859375 34.5 10.53125 C 34.6875 11.132812 35.144531 11.628906 35.78125 11.613281 " fill-opacity="1" fill-rule="evenodd"/><path fill="#bda213" d="M 37.695312 10.269531 C 37.78125 10.125 38.503906 9.105469 39.644531 9.09375 C 38.800781 9.367188 38.40625 9.710938 37.882812 10.386719 C 38.597656 10.640625 39.234375 10.503906 39.773438 9.996094 C 40.175781 9.617188 40.417969 9.105469 40.566406 8.566406 C 39.921875 8.296875 39.007812 8.378906 38.410156 8.753906 C 37.875 9.089844 37.519531 9.660156 37.695312 10.269531 " fill-opacity="1" fill-rule="evenodd"/><g clip-path="url(#cbbf7e37be)"><path fill="#bda213" d="M 31.867188 11.289062 C 31.796875 11.136719 31.390625 9.957031 32.046875 9.027344 C 31.777344 9.871094 31.828125 10.390625 32.070312 11.207031 C 32.695312 10.777344 32.957031 10.183594 32.855469 9.449219 C 32.78125 8.902344 32.507812 8.40625 32.152344 7.972656 C 31.558594 8.335938 31.09375 9.125 31.050781 9.828125 C 31.011719 10.457031 31.269531 11.078125 31.867188 11.289062 " fill-opacity="1" fill-rule="evenodd"/></g><path fill="#96c930" d="M 36.574219 13.023438 C 36.734375 13.039062 37.949219 13.035156 38.589844 12.140625 C 37.90625 12.65625 37.410156 12.773438 36.585938 12.816406 C 36.78125 12.109375 37.242188 11.679688 37.949219 11.535156 C 38.472656 11.429688 39.015625 11.519531 39.527344 11.703125 C 39.382812 12.363281 38.804688 13.039062 38.175781 13.304688 C 37.613281 13.539062 36.960938 13.503906 36.574219 13.023438 " fill-opacity="1" fill-rule="evenodd"/><path fill="#96c930" d="M 35.957031 21.496094 C 36.179688 21.421875 37.765625 20.699219 38.078125 19.148438 C 37.484375 20.226562 36.90625 20.675781 35.847656 21.214844 C 35.683594 20.171875 36.035156 19.339844 36.878906 18.734375 C 37.5 18.285156 38.265625 18.085938 39.046875 18.023438 C 39.246094 18.972656 38.894531 20.199219 38.222656 20.917969 C 37.625 21.5625 36.746094 21.898438 35.957031 21.496094 " fill-opacity="1" fill-rule="evenodd"/><path fill="#96c930" d="M 47.332031 25.65625 C 47.472656 25.628906 48.507812 25.335938 48.839844 24.417969 C 48.378906 25.019531 47.988281 25.242188 47.292969 25.472656 C 47.289062 24.820312 47.578125 24.347656 48.148438 24.054688 C 48.570312 23.839844 49.054688 23.785156 49.535156 23.820312 C 49.570312 24.417969 49.242188 25.132812 48.765625 25.511719 C 48.34375 25.847656 47.777344 25.972656 47.332031 25.65625 " fill-opacity="1" fill-rule="evenodd"/><path fill="#96c930" d="M 47.714844 22.710938 C 47.855469 22.683594 48.890625 22.390625 49.222656 21.472656 C 48.761719 22.074219 48.371094 22.296875 47.675781 22.527344 C 47.671875 21.878906 47.960938 21.402344 48.53125 21.109375 C 48.953125 20.894531 49.4375 20.839844 49.917969 20.875 C 49.953125 21.472656 49.625 22.1875 49.148438 22.566406 C 48.726562 22.902344 48.160156 23.027344 47.714844 22.710938 " fill-opacity="1" fill-rule="evenodd"/><path fill="#96c930" d="M 47.632812 19.84375 C 47.777344 19.820312 48.808594 19.523438 49.144531 18.609375 C 48.683594 19.210938 48.289062 19.433594 47.59375 19.664062 C 47.589844 19.011719 47.878906 18.539062 48.449219 18.246094 C 48.871094 18.027344 49.355469 17.976562 49.835938 18.011719 C 49.871094 18.609375 49.542969 19.324219 49.070312 19.703125 C 48.644531 20.039062 48.078125 20.164062 47.632812 19.84375 " fill-opacity="1" fill-rule="evenodd"/><path fill="#96c930" d="M 41.433594 22.945312 C 41.546875 22.792969 42.28125 21.570312 41.765625 20.382812 C 41.871094 21.382812 41.691406 21.953125 41.230469 22.804688 C 40.632812 22.179688 40.480469 21.460938 40.765625 20.660156 C 40.976562 20.070312 41.394531 19.582031 41.890625 19.179688 C 42.46875 19.726562 42.804688 20.710938 42.6875 21.503906 C 42.585938 22.214844 42.152344 22.851562 41.433594 22.945312 " fill-opacity="1" fill-rule="evenodd"/><path fill="#96c930" d="M 40.03125 18.679688 C 40.195312 18.582031 41.355469 17.753906 41.359375 16.460938 C 41.054688 17.417969 40.664062 17.871094 39.898438 18.46875 C 39.601562 17.660156 39.75 16.9375 40.328125 16.320312 C 40.757812 15.859375 41.335938 15.578125 41.953125 15.40625 C 42.265625 16.136719 42.179688 17.175781 41.757812 17.855469 C 41.378906 18.464844 40.730469 18.878906 40.03125 18.679688 " fill-opacity="1" fill-rule="evenodd"/><path fill="#96c930" d="M 47.042969 18.019531 C 47.09375 17.835938 47.320312 16.433594 46.40625 15.515625 C 46.871094 16.410156 46.914062 17.003906 46.800781 17.964844 C 46.019531 17.601562 45.609375 16.988281 45.578125 16.140625 C 45.554688 15.515625 45.765625 14.90625 46.078125 14.351562 C 46.816406 14.648438 47.496094 15.441406 47.679688 16.222656 C 47.84375 16.917969 47.675781 17.667969 47.042969 18.019531 " fill-opacity="1" fill-rule="evenodd"/><path fill="#96c930" d="M 40.101562 14.316406 C 40.289062 14.269531 41.628906 13.777344 41.980469 12.535156 C 41.429688 13.375 40.929688 13.707031 40.03125 14.078125 C 39.964844 13.21875 40.300781 12.5625 41.027344 12.121094 C 41.5625 11.796875 42.199219 11.679688 42.839844 11.679688 C 42.941406 12.464844 42.578125 13.445312 41.988281 13.988281 C 41.457031 14.472656 40.722656 14.695312 40.101562 14.316406 " fill-opacity="1" fill-rule="evenodd"/><path fill="#96c930" d="M 43.6875 18.214844 C 43.78125 18.054688 44.382812 16.761719 43.75 15.632812 C 43.957031 16.617188 43.835938 17.203125 43.46875 18.101562 C 42.8125 17.539062 42.582031 16.839844 42.785156 16.015625 C 42.929688 15.40625 43.296875 14.875 43.75 14.425781 C 44.382812 14.90625 44.816406 15.855469 44.785156 16.65625 C 44.753906 17.371094 44.390625 18.046875 43.6875 18.214844 " fill-opacity="1" fill-rule="evenodd"/><path fill="#96c930" d="M 46.113281 21.019531 C 45.972656 20.933594 45 20.203125 45.023438 19.097656 C 45.265625 19.921875 45.589844 20.316406 46.230469 20.84375 C 46.5 20.15625 46.386719 19.539062 45.90625 18.996094 C 45.546875 18.597656 45.058594 18.34375 44.535156 18.183594 C 44.253906 18.800781 44.308594 19.691406 44.65625 20.28125 C 44.964844 20.8125 45.511719 21.175781 46.113281 21.019531 " fill-opacity="1" fill-rule="evenodd"/><path fill="#96c930" d="M 45.289062 24.023438 C 45.148438 23.917969 44.175781 23.027344 44.316406 21.84375 C 44.492188 22.753906 44.800781 23.210938 45.433594 23.84375 C 45.796875 23.136719 45.738281 22.457031 45.277344 21.824219 C 44.933594 21.359375 44.433594 21.035156 43.886719 20.808594 C 43.519531 21.445312 43.484375 22.40625 43.796875 23.078125 C 44.078125 23.679688 44.628906 24.128906 45.289062 24.023438 " fill-opacity="1" fill-rule="evenodd"/><path fill="#96c930" d="M 43.621094 26.769531 C 43.480469 26.640625 42.542969 25.570312 42.835938 24.3125 C 42.914062 25.3125 43.191406 25.839844 43.796875 26.59375 C 44.269531 25.875 44.289062 25.140625 43.867188 24.40625 C 43.554688 23.863281 43.054688 23.460938 42.492188 23.152344 C 42.023438 23.792969 41.875 24.820312 42.128906 25.582031 C 42.359375 26.257812 42.898438 26.804688 43.621094 26.769531 " fill-opacity="1" fill-rule="evenodd"/><path fill="#5f821c" d="M 41.164062 38.265625 C 41.238281 38.046875 41.945312 36.472656 43.484375 36.15625 C 42.417969 36.75 41.976562 37.320312 41.445312 38.371094 C 42.480469 38.527344 43.308594 38.175781 43.90625 37.339844 C 44.347656 36.722656 44.542969 35.964844 44.597656 35.195312 C 43.652344 35 42.4375 35.355469 41.726562 36.023438 C 41.089844 36.617188 40.757812 37.488281 41.164062 38.265625 " fill-opacity="1" fill-rule="evenodd"/><path fill="#5f821c" d="M 45.960938 37.417969 C 45.917969 37.261719 45.6875 36.070312 46.445312 35.265625 C 46.070312 36.039062 46.046875 36.546875 46.167969 37.363281 C 46.828125 37.035156 47.160156 36.503906 47.167969 35.78125 C 47.171875 35.246094 46.976562 34.730469 46.695312 34.265625 C 46.074219 34.535156 45.515625 35.230469 45.375 35.898438 C 45.253906 36.496094 45.414062 37.132812 45.960938 37.417969 " fill-opacity="1" fill-rule="evenodd"/><path fill="#5f821c" d="M 42.8125 33.164062 C 42.933594 33.269531 43.921875 33.976562 44.972656 33.625 C 44.113281 33.640625 43.640625 33.449219 42.945312 33 C 43.519531 32.539062 44.144531 32.460938 44.804688 32.757812 C 45.292969 32.976562 45.679688 33.367188 45.988281 33.820312 C 45.484375 34.269531 44.617188 34.484375 43.949219 34.328125 C 43.351562 34.191406 42.839844 33.777344 42.8125 33.164062 " fill-opacity="1" fill-rule="evenodd"/><path fill="#5f821c" d="M 45.628906 31.714844 C 45.726562 31.800781 46.53125 32.375 47.382812 32.089844 C 46.683594 32.101562 46.300781 31.945312 45.734375 31.582031 C 46.203125 31.207031 46.710938 31.144531 47.246094 31.382812 C 47.644531 31.5625 47.957031 31.878906 48.207031 32.246094 C 47.796875 32.609375 47.09375 32.785156 46.550781 32.660156 C 46.066406 32.546875 45.652344 32.214844 45.628906 31.714844 " fill-opacity="1" fill-rule="evenodd"/><path fill="#5f821c" d="M 48.363281 30.765625 C 48.445312 30.835938 49.101562 31.304688 49.800781 31.074219 C 49.226562 31.082031 48.914062 30.957031 48.453125 30.65625 C 48.832031 30.347656 49.25 30.296875 49.6875 30.496094 C 50.015625 30.640625 50.273438 30.902344 50.476562 31.199219 C 50.140625 31.5 49.5625 31.644531 49.121094 31.539062 C 48.722656 31.449219 48.382812 31.175781 48.363281 30.765625 " fill-opacity="1" fill-rule="evenodd"/><path fill="#5f821c" d="M 50.191406 29.828125 C 50.273438 29.902344 50.949219 30.382812 51.664062 30.144531 C 51.078125 30.15625 50.753906 30.023438 50.28125 29.714844 C 50.671875 29.402344 51.101562 29.347656 51.550781 29.550781 C 51.882812 29.703125 52.148438 29.96875 52.359375 30.273438 C 52.011719 30.582031 51.421875 30.730469 50.964844 30.625 C 50.558594 30.53125 50.210938 30.25 50.191406 29.828125 " fill-opacity="1" fill-rule="evenodd"/><path fill="#5f821c" d="M 51.574219 28.621094 C 51.652344 28.667969 52.269531 28.949219 52.808594 28.644531 C 52.339844 28.746094 52.058594 28.691406 51.628906 28.519531 C 51.894531 28.203125 52.230469 28.09375 52.625 28.1875 C 52.914062 28.253906 53.167969 28.425781 53.386719 28.640625 C 53.15625 28.941406 52.707031 29.152344 52.324219 29.140625 C 51.980469 29.128906 51.65625 28.957031 51.574219 28.621094 " fill-opacity="1" fill-rule="evenodd"/><path fill="#5f821c" d="M 49.96875 25.875 C 50.105469 25.8125 51.101562 25.234375 51.207031 24.191406 C 50.886719 24.941406 50.535156 25.273438 49.875 25.695312 C 49.699219 25.023438 49.875 24.453125 50.390625 24 C 50.769531 23.664062 51.257812 23.480469 51.765625 23.390625 C 51.960938 24 51.8125 24.832031 51.417969 25.347656 C 51.066406 25.808594 50.511719 26.089844 49.96875 25.875 " fill-opacity="1" fill-rule="evenodd"/><path fill="#5f821c" d="M 49.171875 28.832031 C 49.152344 28.738281 49.089844 28.015625 49.589844 27.585938 C 49.320312 28.023438 49.277344 28.324219 49.296875 28.816406 C 49.707031 28.664062 49.9375 28.367188 49.988281 27.9375 C 50.023438 27.621094 49.941406 27.304688 49.804688 27.007812 C 49.417969 27.128906 49.042969 27.507812 48.917969 27.894531 C 48.808594 28.246094 48.863281 28.628906 49.171875 28.832031 " fill-opacity="1" fill-rule="evenodd"/><path fill="#5f821c" d="M 50.800781 27.960938 C 50.78125 27.867188 50.722656 27.175781 51.203125 26.761719 C 50.945312 27.179688 50.898438 27.46875 50.921875 27.941406 C 51.316406 27.792969 51.539062 27.507812 51.585938 27.097656 C 51.621094 26.792969 51.539062 26.488281 51.410156 26.203125 C 51.035156 26.320312 50.675781 26.683594 50.554688 27.058594 C 50.449219 27.394531 50.503906 27.765625 50.800781 27.960938 " fill-opacity="1" fill-rule="evenodd"/><path fill="#5f821c" d="M 52.101562 27.277344 C 52.191406 27.21875 52.804688 26.699219 52.746094 25.96875 C 52.617188 26.523438 52.417969 26.796875 52.015625 27.167969 C 51.8125 26.726562 51.863281 26.3125 52.160156 25.9375 C 52.378906 25.660156 52.695312 25.476562 53.03125 25.347656 C 53.242188 25.746094 53.242188 26.335938 53.035156 26.738281 C 52.851562 27.097656 52.503906 27.359375 52.101562 27.277344 " fill-opacity="1" fill-rule="evenodd"/><path fill="#5f821c" d="M 48.101562 35.757812 C 48.058594 35.597656 47.859375 34.402344 48.636719 33.617188 C 48.242188 34.378906 48.207031 34.890625 48.308594 35.710938 C 48.976562 35.398438 49.320312 34.875 49.347656 34.152344 C 49.363281 33.617188 49.183594 33.097656 48.914062 32.621094 C 48.285156 32.878906 47.710938 33.558594 47.554688 34.222656 C 47.414062 34.820312 47.558594 35.457031 48.101562 35.757812 " fill-opacity="1" fill-rule="evenodd"/><path fill="#5f821c" d="M 41.128906 42.078125 C 41.265625 42.222656 42.363281 43.175781 43.652344 42.878906 C 42.625 42.800781 42.085938 42.515625 41.308594 41.898438 C 42.046875 41.417969 42.800781 41.394531 43.554688 41.824219 C 44.109375 42.140625 44.527344 42.652344 44.84375 43.222656 C 44.1875 43.703125 43.132812 43.859375 42.351562 43.597656 C 41.65625 43.367188 41.09375 42.816406 41.128906 42.078125 " fill-opacity="1" fill-rule="evenodd"/><path fill="#5f821c" d="M 45.128906 40.453125 C 45.253906 40.550781 46.253906 41.183594 47.253906 40.792969 C 46.417969 40.851562 45.949219 40.6875 45.25 40.285156 C 45.785156 39.808594 46.390625 39.699219 47.046875 39.957031 C 47.53125 40.144531 47.929688 40.503906 48.25 40.925781 C 47.78125 41.390625 46.953125 41.640625 46.296875 41.527344 C 45.707031 41.421875 45.191406 41.050781 45.128906 40.453125 " fill-opacity="1" fill-rule="evenodd"/><path fill="#5f821c" d="M 48 38.726562 C 48.125 38.789062 49.097656 39.167969 49.894531 38.652344 C 49.183594 38.847656 48.75 38.789062 48.078125 38.5625 C 48.457031 38.058594 48.957031 37.859375 49.570312 37.964844 C 50.023438 38.046875 50.429688 38.289062 50.78125 38.597656 C 50.457031 39.078125 49.78125 39.441406 49.195312 39.453125 C 48.667969 39.464844 48.15625 39.230469 48 38.726562 " fill-opacity="1" fill-rule="evenodd"/><path fill="#5f821c" d="M 49.683594 36.675781 C 49.816406 36.710938 50.816406 36.878906 51.472656 36.230469 C 50.835938 36.558594 50.410156 36.585938 49.722656 36.503906 C 49.984375 35.949219 50.425781 35.660156 51.03125 35.640625 C 51.476562 35.625 51.910156 35.777344 52.308594 36 C 52.09375 36.523438 51.523438 37 50.964844 37.132812 C 50.46875 37.246094 49.933594 37.125 49.683594 36.675781 " fill-opacity="1" fill-rule="evenodd"/><path fill="#5f821c" d="M 50.585938 34.347656 C 50.691406 34.238281 51.390625 33.339844 51.097656 32.351562 C 51.082031 33.152344 50.882812 33.585938 50.433594 34.21875 C 50.023438 33.667969 49.972656 33.078125 50.277344 32.472656 C 50.5 32.027344 50.882812 31.679688 51.3125 31.40625 C 51.71875 31.894531 51.890625 32.710938 51.71875 33.332031 C 51.570312 33.882812 51.164062 34.34375 50.585938 34.347656 " fill-opacity="1" fill-rule="evenodd"/><path fill="#96c930" d="M 46.519531 29.316406 C 46.53125 29.160156 46.746094 28.011719 47.710938 27.554688 C 47.101562 28.117188 46.902344 28.566406 46.722656 29.34375 C 47.429688 29.28125 47.917969 28.917969 48.175781 28.269531 C 48.371094 27.792969 48.375 27.261719 48.289062 26.742188 C 47.632812 26.769531 46.890625 27.195312 46.527344 27.75 C 46.203125 28.242188 46.125 28.871094 46.519531 29.316406 " fill-opacity="1" fill-rule="evenodd"/><path fill="#e5c113" d="M 27.121094 14.339844 C 26.953125 14.308594 25.707031 13.953125 25.308594 12.851562 C 25.863281 13.574219 26.335938 13.84375 27.171875 14.121094 C 27.179688 13.339844 26.832031 12.769531 26.144531 12.414062 C 25.636719 12.152344 25.054688 12.089844 24.476562 12.128906 C 24.433594 12.847656 24.824219 13.710938 25.394531 14.164062 C 25.90625 14.570312 26.585938 14.722656 27.121094 14.339844 " fill-opacity="1" fill-rule="evenodd"/><path fill="#e5c113" d="M 27.671875 11.761719 C 27.609375 11.601562 27.269531 10.355469 28.007812 9.441406 C 27.671875 10.289062 27.691406 10.832031 27.886719 11.691406 C 28.558594 11.289062 28.867188 10.695312 28.816406 9.925781 C 28.777344 9.359375 28.527344 8.832031 28.191406 8.355469 C 27.554688 8.695312 27.019531 9.476562 26.925781 10.199219 C 26.84375 10.84375 27.066406 11.503906 27.671875 11.761719 " fill-opacity="1" fill-rule="evenodd"/><g clip-path="url(#8910cd2acd)"><path fill="#4e4749" d="M 34.410156 53.890625 C 33.847656 54.757812 33.191406 55.527344 32.449219 56.308594 C 31.5625 57.238281 31.332031 57.285156 30.90625 58.539062 C 30.796875 58.867188 30.699219 59.195312 30.59375 59.523438 C 30.371094 60.195312 30.160156 60.726562 29.796875 61.34375 C 29.335938 62.050781 28.902344 62.492188 28.210938 62.980469 C 28.808594 62.417969 29.160156 61.929688 29.476562 61.175781 C 29.730469 60.550781 29.84375 60.023438 29.945312 59.363281 C 30.046875 58.734375 30.023438 58.421875 29.34375 58.828125 C 28.230469 59.496094 27.160156 59.929688 25.78125 60.292969 C 23.839844 60.738281 22.292969 60.792969 20.3125 60.601562 C 22.273438 60.644531 23.789062 60.476562 25.664062 59.875 C 26.941406 59.429688 27.921875 58.941406 28.925781 58.226562 C 29.492188 57.824219 28.714844 58.082031 28.644531 58.101562 C 26.761719 58.632812 24.957031 58.628906 22.601562 58.109375 C 25.453125 58.527344 27.414062 58.203125 29.644531 57.109375 C 31.019531 56.433594 32.085938 55.160156 32.71875 54.148438 C 33.371094 53.101562 32.449219 53.839844 32.226562 53.992188 C 30.804688 54.960938 29.152344 55.558594 27.46875 55.941406 C 26.691406 56.09375 25.964844 56.191406 25.25 56.210938 C 22.417969 56.417969 20.476562 56.625 18.078125 58.304688 C 19.347656 57.234375 20.503906 56.613281 21.777344 56.191406 C 22.253906 56.035156 22.566406 55.882812 21.953125 55.652344 C 20.71875 55.121094 19.730469 54.605469 18.394531 54.3125 C 17.679688 54.171875 17.128906 54.152344 16.40625 54.265625 C 15.546875 54.425781 14.945312 54.707031 14.21875 55.1875 C 14.925781 54.648438 15.511719 54.324219 16.367188 54.085938 C 17.113281 53.910156 17.691406 53.890625 18.449219 53.976562 C 19.847656 54.179688 20.867188 54.621094 22.175781 55.0625 C 23.519531 55.453125 24.714844 55.453125 25.980469 55.222656 C 26.351562 55.15625 26.765625 55.066406 26.15625 54.757812 C 25.273438 54.316406 24.597656 53.765625 22.667969 53.746094 C 24.882812 53.5625 25.613281 54.199219 26.832031 54.453125 C 27.957031 54.695312 28.992188 54.386719 29.945312 53.851562 C 30.910156 53.308594 30.753906 53.128906 29.808594 53.210938 C 28.945312 53.285156 28.101562 53.257812 27.164062 53.203125 C 26.417969 53.15625 25.675781 53.070312 24.933594 52.984375 C 24.382812 52.917969 23.464844 52.832031 22.914062 52.917969 C 21.527344 53.144531 20.398438 53.863281 18.328125 53.621094 C 19.652344 53.59375 20.515625 53.222656 21.34375 52.832031 C 21.714844 52.660156 21.359375 52.570312 21.148438 52.550781 C 20.53125 52.496094 19.910156 52.457031 19.28125 52.4375 C 17.957031 52.417969 16.882812 52.492188 15.589844 52.800781 C 14.210938 53.164062 13.257812 53.613281 12.113281 54.460938 C 13.160156 53.441406 14.070312 52.847656 15.417969 52.273438 C 16.726562 51.761719 17.839844 51.523438 19.230469 51.347656 C 21.816406 51.074219 24.257812 51.195312 26.820312 51.035156 C 28.210938 50.945312 29.460938 50.84375 30.753906 50.285156 C 33.511719 48.9375 33.738281 46.6875 33.492188 43.957031 C 33.242188 41.191406 32.140625 38.210938 29.167969 39.167969 C 26.617188 39.988281 24.3125 40.289062 21.078125 39.945312 C 24.917969 39.902344 27.234375 39.027344 30.140625 37.316406 C 29.839844 37.230469 29.535156 37.164062 29.203125 37.101562 C 27.648438 36.832031 26.175781 36.773438 24.632812 36.386719 C 23.835938 36.167969 23.246094 35.929688 22.5625 35.460938 C 21.855469 34.933594 21.453125 34.433594 21.035156 33.664062 C 21.554688 34.320312 22.023438 34.71875 22.785156 35.070312 C 23.46875 35.367188 24.035156 35.472656 24.773438 35.53125 C 26.304688 35.609375 27.796875 35.40625 29.332031 35.375 C 30.21875 35.375 30.929688 35.429688 31.792969 35.652344 C 32.75 35.925781 33.550781 36.355469 34.207031 36.921875 C 35.339844 37.894531 36.644531 38.824219 36.78125 36.433594 C 36.792969 36.21875 36.800781 36.003906 36.808594 35.785156 C 36.765625 33.453125 36.535156 31.558594 34.464844 30.1875 C 33.175781 29.386719 31.769531 29.003906 30.335938 28.542969 C 28.097656 27.8125 26.1875 27.144531 24.316406 25.664062 C 23.4375 24.917969 22.894531 24.253906 22.371094 23.222656 C 21.835938 22.035156 21.660156 21.054688 21.601562 19.757812 C 21.78125 21.011719 22.054688 21.949219 22.71875 23.03125 C 23.304688 23.929688 23.867188 24.476562 24.753906 25.070312 C 26.652344 26.234375 28.554688 26.667969 30.707031 27.132812 C 31.832031 27.367188 32.847656 27.550781 33.871094 27.863281 C 34.273438 27.988281 35.316406 28.265625 35.070312 27.484375 C 34.542969 25.777344 34.152344 23.410156 33.210938 21.941406 C 32.46875 20.785156 31.558594 20.078125 30.371094 18.90625 C 28.332031 16.816406 27.703125 14.90625 27.78125 12.136719 C 27.941406 13.621094 28.195312 14.78125 28.960938 16.070312 C 29.542969 17.015625 30.097656 17.558594 30.960938 18.242188 C 31.46875 18.628906 31.929688 18.957031 32.347656 19.269531 C 33.339844 20.003906 33.492188 19.734375 33.519531 18.558594 C 33.613281 16.941406 33.871094 15.734375 34.550781 14.253906 C 35.351562 12.675781 36.21875 11.683594 37.59375 10.574219 C 36.367188 11.78125 35.625 12.832031 35.03125 14.449219 C 34.546875 15.894531 34.433594 17.035156 34.507812 18.550781 C 34.769531 21.613281 35.6875 24.011719 36.894531 26.800781 C 37.460938 28.148438 37.996094 29.414062 38.453125 30.695312 C 38.9375 32.042969 39.40625 32.125 40.457031 31.113281 C 41.203125 30.394531 42.03125 29.652344 42.957031 28.746094 C 44.207031 27.484375 45 26.496094 45.757812 24.875 C 46.742188 22.695312 46.9375 20.84375 46.894531 18.46875 C 47.257812 20.90625 47.324219 22.8125 46.746094 25.21875 C 46.230469 26.953125 45.605469 28.132812 44.628906 29.550781 C 44.429688 29.84375 44.558594 30.210938 45.007812 30.136719 C 45.484375 30.0625 45.976562 29.988281 46.496094 29.90625 C 47.476562 29.742188 48.332031 29.574219 49.273438 29.242188 C 50.265625 28.859375 50.929688 28.464844 51.675781 27.703125 C 51.050781 28.609375 50.4375 29.136719 49.503906 29.707031 C 48.59375 30.230469 47.746094 30.558594 46.761719 30.910156 C 46.054688 31.15625 45.351562 31.378906 44.671875 31.632812 C 41.890625 32.683594 40.769531 34.234375 40.035156 36.890625 C 39.351562 39.363281 39.960938 39.730469 42.300781 39.144531 C 42.746094 39.03125 43.199219 38.929688 43.671875 38.816406 C 44.941406 38.507812 45.9375 38.234375 47.101562 37.609375 C 48.492188 36.824219 49.273438 35.980469 50.089844 34.613281 C 49.441406 36.136719 48.773438 37.121094 47.496094 38.183594 C 46.371094 39.039062 45.375 39.503906 44.085938 40.046875 C 42.957031 40.511719 41.914062 40.917969 40.859375 41.546875 C 39.472656 42.441406 38.851562 43.101562 38.660156 44.777344 C 38.566406 45.609375 38.632812 46.5 38.824219 47.273438 C 39.152344 48.589844 40.277344 49.703125 41.472656 50.285156 C 42.765625 50.84375 44.015625 50.945312 45.40625 51.035156 C 47.96875 51.195312 50.410156 51.074219 52.996094 51.347656 C 54.386719 51.523438 55.496094 51.761719 56.808594 52.273438 C 58.152344 52.847656 59.066406 53.441406 60.113281 54.460938 C 58.96875 53.613281 58.015625 53.164062 56.636719 52.800781 C 55.34375 52.492188 54.269531 52.417969 52.945312 52.4375 C 52.3125 52.457031 51.695312 52.496094 51.082031 52.550781 C 50.867188 52.570312 50.511719 52.660156 50.882812 52.832031 C 51.710938 53.222656 52.574219 53.59375 53.898438 53.621094 C 51.828125 53.863281 50.699219 53.144531 49.3125 52.917969 C 48.761719 52.832031 47.84375 52.917969 47.292969 52.984375 C 46.550781 53.070312 45.808594 53.15625 45.0625 53.203125 C 44.125 53.257812 43.28125 53.285156 42.417969 53.210938 C 41.472656 53.128906 41.316406 53.308594 42.28125 53.851562 C 43.234375 54.386719 44.269531 54.695312 45.394531 54.453125 C 46.613281 54.199219 47.34375 53.5625 49.558594 53.746094 C 47.628906 53.765625 46.953125 54.316406 46.070312 54.757812 C 45.460938 55.066406 45.875 55.15625 46.246094 55.222656 C 47.511719 55.453125 48.707031 55.453125 50.046875 55.0625 C 51.359375 54.621094 52.378906 54.179688 53.777344 53.976562 C 54.535156 53.890625 55.113281 53.910156 55.859375 54.085938 C 56.714844 54.324219 57.300781 54.648438 58.003906 55.1875 C 57.277344 54.707031 56.679688 54.425781 55.820312 54.265625 C 55.097656 54.152344 54.546875 54.171875 53.832031 54.3125 C 52.492188 54.605469 51.507812 55.121094 50.273438 55.652344 C 49.660156 55.882812 49.96875 56.035156 50.449219 56.191406 C 51.722656 56.613281 52.878906 57.234375 54.148438 58.304688 C 51.75 56.625 49.808594 56.417969 46.976562 56.210938 C 46.261719 56.191406 45.53125 56.09375 44.757812 55.941406 C 43.074219 55.558594 41.421875 54.960938 40 53.992188 C 39.777344 53.839844 38.851562 53.101562 39.507812 54.148438 C 40.140625 55.160156 41.207031 56.433594 42.582031 57.109375 C 44.8125 58.203125 46.773438 58.527344 49.625 58.109375 C 47.269531 58.628906 45.464844 58.632812 43.582031 58.101562 C 43.507812 58.082031 42.734375 57.824219 43.300781 58.226562 C 44.304688 58.941406 45.285156 59.429688 46.5625 59.875 C 48.4375 60.476562 49.953125 60.644531 51.914062 60.601562 C 49.933594 60.792969 48.386719 60.738281 46.441406 60.292969 C 45.066406 59.929688 43.996094 59.496094 42.882812 58.828125 C 42.203125 58.421875 42.179688 58.734375 42.28125 59.363281 C 42.382812 60.023438 42.496094 60.550781 42.75 61.175781 C 43.066406 61.929688 43.414062 62.417969 44.011719 62.980469 C 43.324219 62.492188 42.886719 62.050781 42.429688 61.34375 C 42.066406 60.726562 41.855469 60.195312 41.632812 59.523438 C 41.527344 59.195312 41.429688 58.867188 41.320312 58.539062 C 40.894531 57.285156 40.664062 57.238281 39.777344 56.308594 C 38.871094 55.355469 38.097656 54.421875 37.457031 53.304688 C 37.109375 52.703125 36.777344 52.464844 36.742188 53.34375 C 36.710938 54.179688 36.789062 54.976562 37.089844 55.585938 C 37.304688 56.019531 37.582031 56.425781 37.871094 56.804688 C 38.207031 57.226562 38.527344 57.574219 38.9375 57.925781 C 39.285156 58.199219 39.609375 58.417969 40.027344 58.566406 C 39.574219 58.519531 39.195312 58.355469 38.796875 58.140625 C 38.292969 57.867188 37.890625 57.574219 37.457031 57.203125 C 37.304688 57.066406 37.15625 56.925781 37.015625 56.785156 C 36.800781 56.570312 36.675781 56.679688 36.675781 56.957031 C 36.679688 57.914062 36.707031 58.613281 37.371094 59.484375 C 37.648438 59.847656 37.976562 60.179688 38.308594 60.484375 C 39.101562 61.164062 39.929688 61.710938 40.976562 61.898438 C 40.195312 61.871094 39.507812 61.625 38.851562 61.269531 C 38.78125 61.234375 38.648438 61.1875 38.710938 61.324219 C 38.800781 61.527344 38.886719 61.738281 38.976562 61.941406 C 39.097656 62.207031 39.210938 62.457031 39.363281 62.703125 C 39.460938 62.882812 39.6875 63.128906 39.859375 63.242188 C 39.621094 63.117188 39.46875 62.957031 39.300781 62.746094 C 39.121094 62.511719 38.980469 62.273438 38.832031 62.015625 C 38.6875 61.75 38.535156 61.460938 38.367188 61.191406 C 38.207031 60.933594 37.960938 60.71875 37.722656 60.53125 C 37.578125 60.417969 37.4375 60.300781 37.300781 60.179688 C 36.992188 59.910156 37.027344 60.273438 37.054688 60.503906 C 37.203125 61.726562 37.511719 62.941406 37.96875 64.132812 C 37.238281 62.792969 36.648438 61.421875 36.191406 60.023438 C 36.09375 59.71875 35.988281 58.976562 35.527344 59.457031 C 34.984375 60.03125 34.476562 60.597656 34.023438 61.242188 C 33.75 61.6875 33.578125 62.039062 33.457031 62.546875 C 33.496094 62.011719 33.621094 61.632812 33.847656 61.148438 C 34.191406 60.398438 34.628906 59.773438 35.121094 59.117188 C 35.492188 58.601562 35.59375 57.894531 35.464844 57.277344 C 35.429688 57.09375 35.394531 56.914062 35.359375 56.730469 C 35.300781 56.402344 35.113281 56.433594 34.898438 56.65625 C 34.722656 56.835938 34.535156 57.007812 34.316406 57.199219 C 33.921875 57.542969 33.558594 57.84375 33.210938 58.242188 C 32.800781 58.722656 32.601562 59.117188 32.445312 59.730469 C 32.507812 59.078125 32.644531 58.640625 32.964844 58.070312 C 33.246094 57.601562 33.558594 57.230469 33.902344 56.808594 C 34.242188 56.378906 34.492188 56.035156 34.722656 55.535156 C 34.933594 55.027344 35.039062 54.601562 35.066406 54.191406 C 35.113281 53.488281 34.71875 53.417969 34.410156 53.890625 " fill-opacity="1" fill-rule="nonzero"/></g></svg>